<?xml version="1.0" encoding="UTF-8" standalone="no"?>
<!-- Created with Inkscape (http://www.inkscape.org/) -->

<svg
   xmlns:dc="http://purl.org/dc/elements/1.1/"
   xmlns:cc="http://creativecommons.org/ns#"
   xmlns:rdf="http://www.w3.org/1999/02/22-rdf-syntax-ns#"
   xmlns:svg="http://www.w3.org/2000/svg"
   xmlns="http://www.w3.org/2000/svg"
   xmlns:xlink="http://www.w3.org/1999/xlink"
   xmlns:sodipodi="http://sodipodi.sourceforge.net/DTD/sodipodi-0.dtd"
   xmlns:inkscape="http://www.inkscape.org/namespaces/inkscape"
   version="1.0"
   width="100"
   height="29.725357"
   id="svg2"
   inkscape:version="0.47 r22583"
   sodipodi:docname="plane.svg">
  <metadata
     id="metadata138">
    <rdf:RDF>
      <cc:Work
         rdf:about="">
        <dc:format>image/svg+xml</dc:format>
        <dc:type
           rdf:resource="http://purl.org/dc/dcmitype/StillImage" />
      </cc:Work>
    </rdf:RDF>
  </metadata>
  <sodipodi:namedview
     pagecolor="#ffffff"
     bordercolor="#666666"
     borderopacity="1"
     objecttolerance="10"
     gridtolerance="10"
     guidetolerance="10"
     inkscape:pageopacity="0"
     inkscape:pageshadow="2"
     inkscape:window-width="1366"
     inkscape:window-height="748"
     id="namedview136"
     showgrid="false"
     inkscape:zoom="0.91666667"
     inkscape:cx="295.509"
     inkscape:cy="87.841155"
     inkscape:window-x="-4"
     inkscape:window-y="-3"
     inkscape:window-maximized="1"
     inkscape:current-layer="svg2" />
  <defs
     id="defs5">
    <inkscape:perspective
       sodipodi:type="inkscape:persp3d"
       inkscape:vp_x="0 : 94 : 1"
       inkscape:vp_y="0 : 1000 : 0"
       inkscape:vp_z="600 : 94 : 1"
       inkscape:persp3d-origin="300 : 62.666667 : 1"
       id="perspective140" />
    <linearGradient
       id="linearGradient2828">
      <stop
         style="stop-color:#ddebdf;stop-opacity:1"
         offset="0"
         id="stop2830" />
      <stop
         style="stop-color:#edfdf8;stop-opacity:1"
         offset="1"
         id="stop2832" />
    </linearGradient>
    <linearGradient
       id="linearGradient2836">
      <stop
         style="stop-color:#edfdf8;stop-opacity:1"
         offset="0"
         id="stop2839" />
      <stop
         style="stop-color:#edfdf8;stop-opacity:1"
         offset="0.11266927"
         id="stop2853" />
      <stop
         style="stop-color:#a2d1c6;stop-opacity:1"
         offset="0.18583558"
         id="stop2851" />
      <stop
         style="stop-color:#a2d1c6;stop-opacity:1"
         offset="0.30777946"
         id="stop2841" />
      <stop
         style="stop-color:#92b7d6;stop-opacity:1"
         offset="0.40082908"
         id="stop2843" />
      <stop
         style="stop-color:#92b7d6;stop-opacity:1"
         offset="0.625"
         id="stop2845" />
      <stop
         style="stop-color:#7595bf;stop-opacity:1"
         offset="0.7254464"
         id="stop2847" />
      <stop
         style="stop-color:#7595bf;stop-opacity:1"
         offset="1"
         id="stop2849" />
    </linearGradient>
    <linearGradient
       id="linearGradient2866">
      <stop
         style="stop-color:#a2d1c6;stop-opacity:1"
         offset="0"
         id="stop2868" />
      <stop
         style="stop-color:#a2d1c6;stop-opacity:1"
         offset="0.30777946"
         id="stop2876" />
      <stop
         style="stop-color:#92b7d6;stop-opacity:1"
         offset="0.40082908"
         id="stop2874" />
      <stop
         style="stop-color:#92b7d6;stop-opacity:1"
         offset="0.625"
         id="stop2880" />
      <stop
         style="stop-color:#7595bf;stop-opacity:1"
         offset="0.7254464"
         id="stop2878" />
      <stop
         style="stop-color:#7595bf;stop-opacity:1"
         offset="1"
         id="stop2870" />
    </linearGradient>
    <linearGradient
       id="linearGradient2834">
      <stop
         style="stop-color:#a9cfcd;stop-opacity:1"
         offset="0"
         id="stop2836" />
      <stop
         style="stop-color:#eefef9;stop-opacity:1"
         offset="1"
         id="stop2838" />
    </linearGradient>
    <linearGradient
       id="linearGradient2806">
      <stop
         style="stop-color:#7595bf;stop-opacity:1"
         offset="0"
         id="stop2808" />
      <stop
         style="stop-color:#7595bf;stop-opacity:1"
         offset="0.875"
         id="stop2814" />
      <stop
         style="stop-color:#92b7d6;stop-opacity:1"
         offset="1"
         id="stop2810" />
    </linearGradient>
    <linearGradient
       id="linearGradient3774">
      <stop
         style="stop-color:#455b2e;stop-opacity:1"
         offset="0"
         id="stop3776" />
      <stop
         style="stop-color:#455b2e;stop-opacity:1"
         offset="0.85714287"
         id="stop2804" />
      <stop
         style="stop-color:#768465;stop-opacity:1"
         offset="1"
         id="stop3778" />
    </linearGradient>
    <linearGradient
       id="linearGradient2865">
      <stop
         style="stop-color:#8bc0c6;stop-opacity:1"
         offset="0"
         id="stop2867" />
      <stop
         style="stop-color:#8bc0c6;stop-opacity:1"
         offset="0.6785714"
         id="stop2852" />
      <stop
         style="stop-color:#eefef9;stop-opacity:1"
         offset="1"
         id="stop2869" />
    </linearGradient>
    <linearGradient
       id="linearGradient2791">
      <stop
         style="stop-color:#c7edef;stop-opacity:1"
         offset="0"
         id="stop2793" />
      <stop
         style="stop-color:#eefef9;stop-opacity:1"
         offset="1"
         id="stop2795" />
    </linearGradient>
    <linearGradient
       x1="130.51373"
       y1="105.38046"
       x2="130.51373"
       y2="103.52637"
       id="linearGradient2797"
       xlink:href="#linearGradient2791"
       gradientUnits="userSpaceOnUse"
       gradientTransform="translate(-40,0)" />
    <linearGradient
       x1="136.86935"
       y1="126.10735"
       x2="136.20644"
       y2="125.44443"
       id="linearGradient2819"
       xlink:href="#linearGradient2791"
       gradientUnits="userSpaceOnUse" />
    <linearGradient
       x1="145.664"
       y1="117.13592"
       x2="144.95689"
       y2="116.34042"
       id="linearGradient2827"
       xlink:href="#linearGradient2791"
       gradientUnits="userSpaceOnUse" />
    <linearGradient
       x1="145.664"
       y1="117.13592"
       x2="144.95689"
       y2="116.34042"
       id="linearGradient2831"
       xlink:href="#linearGradient2791"
       gradientUnits="userSpaceOnUse"
       gradientTransform="translate(57.27565,-0.574526)" />
    <linearGradient
       x1="145.70819"
       y1="115.67751"
       x2="144.8685"
       y2="114.83782"
       id="linearGradient2835"
       xlink:href="#linearGradient2791"
       gradientUnits="userSpaceOnUse"
       gradientTransform="translate(46.66904,13.39083)" />
    <linearGradient
       x1="384.31253"
       y1="95.701752"
       x2="389.96939"
       y2="90.044899"
       id="linearGradient3790"
       xlink:href="#linearGradient2791"
       gradientUnits="userSpaceOnUse" />
    <radialGradient
       cx="296.45197"
       cy="135.71054"
       r="16.330547"
       fx="296.45197"
       fy="135.71054"
       id="radialGradient2802"
       xlink:href="#linearGradient3774"
       gradientUnits="userSpaceOnUse"
       gradientTransform="matrix(3.179595,-0.778724,0.527512,2.153864,-713.3919,81.40284)" />
    <radialGradient
       cx="344.74722"
       cy="148.90628"
       r="40.600868"
       fx="344.74722"
       fy="148.90628"
       id="radialGradient2812"
       xlink:href="#linearGradient2806"
       gradientUnits="userSpaceOnUse"
       gradientTransform="matrix(2.385977,-0.05544466,0.01948968,0.838658,-472.8599,37.03575)" />
    <linearGradient
       x1="149.875"
       y1="149.12808"
       x2="150.25"
       y2="144.12808"
       id="linearGradient2832"
       xlink:href="#linearGradient2834"
       gradientUnits="userSpaceOnUse" />
    <radialGradient
       cx="304.25998"
       cy="120.5285"
       r="4.703938"
       fx="304.25998"
       fy="120.5285"
       id="radialGradient2850"
       xlink:href="#linearGradient2865"
       gradientUnits="userSpaceOnUse"
       gradientTransform="matrix(3.258839,0.608807,-0.413396,2.212837,-642.2335,-327.2127)" />
    <radialGradient
       cx="301.90271"
       cy="119.65045"
       r="59.033546"
       fx="301.90271"
       fy="119.65045"
       id="radialGradient2872"
       xlink:href="#linearGradient2866"
       gradientUnits="userSpaceOnUse"
       gradientTransform="matrix(-2.466121,0.697207,-0.195589,-0.691826,979.454,13.06977)" />
    <radialGradient
       cx="431.13171"
       cy="31.938066"
       r="120.5192"
       fx="431.13171"
       fy="31.938066"
       id="radialGradient2834"
       xlink:href="#linearGradient2836"
       gradientUnits="userSpaceOnUse"
       gradientTransform="matrix(5.042145,-1.85077,0.154371,0.420566,-1751.807,836.959)" />
    <linearGradient
       x1="192.62421"
       y1="65.521515"
       x2="197.375"
       y2="62.021515"
       id="linearGradient2837"
       xlink:href="#linearGradient2828"
       gradientUnits="userSpaceOnUse" />
    <radialGradient
       cx="299.45367"
       cy="135.21065"
       r="16.330547"
       fx="299.45367"
       fy="135.21065"
       id="radialGradient3766"
       xlink:href="#linearGradient3774"
       gradientUnits="userSpaceOnUse"
       gradientTransform="matrix(3.179595,-0.778724,0.527512,2.153864,-525.2428,96.99191)" />
    <linearGradient
       x1="514.32574"
       y1="129.91866"
       x2="515.55347"
       y2="125.32247"
       id="linearGradient3792"
       xlink:href="#linearGradient2791"
       gradientUnits="userSpaceOnUse" />
    <radialGradient
       cx="304.25998"
       cy="120.5285"
       r="4.703938"
       fx="304.25998"
       fy="120.5285"
       id="radialGradient3825"
       xlink:href="#linearGradient2865"
       gradientUnits="userSpaceOnUse"
       gradientTransform="matrix(3.258839,0.608807,-0.413396,2.212837,-450.2691,-319.1206)" />
    <linearGradient
       x1="192.62421"
       y1="65.521515"
       x2="197.375"
       y2="62.021515"
       id="linearGradient5667"
       xlink:href="#linearGradient2828"
       gradientUnits="userSpaceOnUse" />
    <linearGradient
       x1="130.51373"
       y1="105.38046"
       x2="130.51373"
       y2="103.52637"
       id="linearGradient5669"
       xlink:href="#linearGradient2791"
       gradientUnits="userSpaceOnUse"
       gradientTransform="translate(-40,0)" />
    <linearGradient
       x1="145.664"
       y1="117.13592"
       x2="144.95689"
       y2="116.34042"
       id="linearGradient5671"
       xlink:href="#linearGradient2791"
       gradientUnits="userSpaceOnUse" />
    <linearGradient
       x1="136.86935"
       y1="126.10735"
       x2="136.20644"
       y2="125.44443"
       id="linearGradient5673"
       xlink:href="#linearGradient2791"
       gradientUnits="userSpaceOnUse" />
    <linearGradient
       x1="145.664"
       y1="117.13592"
       x2="144.95689"
       y2="116.34042"
       id="linearGradient5675"
       xlink:href="#linearGradient2791"
       gradientUnits="userSpaceOnUse"
       gradientTransform="translate(57.27565,-0.574526)" />
    <linearGradient
       x1="145.70819"
       y1="115.67751"
       x2="144.8685"
       y2="114.83782"
       id="linearGradient5677"
       xlink:href="#linearGradient2791"
       gradientUnits="userSpaceOnUse"
       gradientTransform="translate(46.66904,13.39083)" />
    <radialGradient
       cx="296.45197"
       cy="135.71054"
       r="16.330547"
       fx="296.45197"
       fy="135.71054"
       id="radialGradient5679"
       xlink:href="#linearGradient3774"
       gradientUnits="userSpaceOnUse"
       gradientTransform="matrix(3.179595,-0.778724,0.527512,2.153864,-713.3919,81.40284)" />
    <linearGradient
       x1="384.31253"
       y1="95.701752"
       x2="389.96939"
       y2="90.044899"
       id="linearGradient5681"
       xlink:href="#linearGradient2791"
       gradientUnits="userSpaceOnUse" />
    <radialGradient
       cx="344.74722"
       cy="148.90628"
       r="40.600868"
       fx="344.74722"
       fy="148.90628"
       id="radialGradient5683"
       xlink:href="#linearGradient2806"
       gradientUnits="userSpaceOnUse"
       gradientTransform="matrix(2.385977,-0.05544466,0.01948968,0.838658,-472.8599,37.03575)" />
    <radialGradient
       cx="304.25998"
       cy="120.5285"
       r="4.703938"
       fx="304.25998"
       fy="120.5285"
       id="radialGradient5685"
       xlink:href="#linearGradient2865"
       gradientUnits="userSpaceOnUse"
       gradientTransform="matrix(3.258839,0.608807,-0.413396,2.212837,-642.2335,-327.2127)" />
    <linearGradient
       x1="149.875"
       y1="149.12808"
       x2="150.25"
       y2="144.12808"
       id="linearGradient5687"
       xlink:href="#linearGradient2834"
       gradientUnits="userSpaceOnUse" />
    <radialGradient
       cx="301.90271"
       cy="119.65045"
       r="59.033546"
       fx="301.90271"
       fy="119.65045"
       id="radialGradient5689"
       xlink:href="#linearGradient2866"
       gradientUnits="userSpaceOnUse"
       gradientTransform="matrix(-2.466121,0.697207,-0.195589,-0.691826,979.454,13.06977)" />
    <radialGradient
       cx="431.13171"
       cy="31.938066"
       r="120.5192"
       fx="431.13171"
       fy="31.938066"
       id="radialGradient5691"
       xlink:href="#linearGradient2836"
       gradientUnits="userSpaceOnUse"
       gradientTransform="matrix(5.042145,-1.85077,0.154371,0.420566,-1751.807,836.959)" />
    <radialGradient
       cx="299.45367"
       cy="135.21065"
       r="16.330547"
       fx="299.45367"
       fy="135.21065"
       id="radialGradient5693"
       xlink:href="#linearGradient3774"
       gradientUnits="userSpaceOnUse"
       gradientTransform="matrix(3.179595,-0.778724,0.527512,2.153864,-525.2428,96.99191)" />
    <linearGradient
       x1="514.32574"
       y1="129.91866"
       x2="515.55347"
       y2="125.32247"
       id="linearGradient5695"
       xlink:href="#linearGradient2791"
       gradientUnits="userSpaceOnUse" />
    <radialGradient
       cx="304.25998"
       cy="120.5285"
       r="4.703938"
       fx="304.25998"
       fy="120.5285"
       id="radialGradient5697"
       xlink:href="#linearGradient2865"
       gradientUnits="userSpaceOnUse"
       gradientTransform="matrix(3.258839,0.608807,-0.413396,2.212837,-450.2691,-319.1206)" />
  </defs>
  <g
     transform="matrix(0.16919948,0,0,0.16919948,-0.40981044,-1.0796985)"
     id="g5603">
    <path
       d="m 182.25677,133.53196 c 0.51608,2.47282 0.56091,4.86671 0,7.95495 -10.96127,-0.8169 -83.791373,-5.19116 -87.681238,-6.54073 -2.347523,-0.81446 -10.281267,-1.03944 -12.197592,0.35355 -1.831172,1.33109 -5.572806,3.12955 -6.540738,4.94975 -2.43566,4.58026 2.717453,7.25733 7.247845,6.89429 5.156347,-0.4132 96.582863,9.42035 95.989743,10.6066 -1.25,2.08087 -0.66513,6.90179 2.82843,8.66206 10.45678,5.26878 95.52992,8.45526 101.11627,2.47487 1.9131,11.74045 8.69946,16.4473 15.55635,10.78338 3.85668,1.5327 9.75653,1.59149 13.87697,-0.26517 1.82669,1.08363 3.65339,1.24731 5.48008,0 17.75749,5.648 17.68058,-15.47845 12.99308,-21.92031 15.43457,-7.49532 28.75165,-13.40254 41.54253,-18.9151 12.46582,3.26612 25.21174,3.45118 38.00699,3.09359 0.31493,1.18768 1.14461,1.86059 2.12132,2.38649 -1.52392,0.91334 -2.10746,1.82669 -2.65165,2.74003 -1.30503,-2.18843 -16.37807,-11.14495 -17.94284,8.75045 -0.9534,12.12206 5.93632,25.78215 16.44024,13.25825 6.74593,2.87088 11.5842,2.56232 15.33537,0.44194 0,0 14.66703,9.96138 17.27993,-10.51821 2.21014,-17.32286 -14.37779,-16.17304 -19.44544,-8.66206 0.10804,-1.69906 0.15145,-2.94575 0.17678,-4.06586 13.00604,-1.33349 13.95972,-4.6757 15.29118,-7.95495 2.37125,-0.16154 4.89094,-0.47152 6.62913,0 0.57127,4.29695 -0.65949,7.68567 10.96015,7.68978 0.88799,4.43279 -5.57326,5.64669 -2.82843,7.68979 3.82442,2.84669 11.39619,-1.81976 13.34664,-4.41942 9.52561,0.30376 18.65421,0.2105 25.54424,-2.12132 0.3055,5.69755 34.43105,8.49812 39.4212,-1.94454 6.74146,1.75 58.65822,16.21489 63.10928,-0.0884 1.09577,-4.01357 -2.86787,-5.78737 -12.02082,-7.77817 C 569.56974,134.52878 515.78314,120.7669 515.56923,120.98081 521.47108,97.974387 499.50515,104.92582 479.59518,109.6671 476.03956,107.09085 461.9206,105.4749 451.75,103.5 470.48041,96.367662 491.08538,85.534972 507.5,77.25 503.7185,98.037614 518.72712,91.388185 523,88 c 7.6342,4.72684 13.97363,0.149192 13.75,-12.25 -0.1082,-5.999095 -1.613,-8.75 -4,-13 C 549.01207,46.594819 562.75751,32.635934 557,26.25 538.02339,5.2021207 505.85616,2.569209 479.5,10.5 401.30707,34.028915 331.78048,72.553215 280.19106,93.933983 273.9365,94.525312 258.00408,94.891575 223.15285,94.817866 218.0736,86.543441 186.37474,36.90675 180.12289,32.8728 c -4.28453,-2.764558 -7.50045,-2.048098 -10.8592,-0.545496 -3.35876,1.502602 -7.84581,2.508407 -5.48008,13.788582 0.88913,4.239507 10.05993,33.413866 15.11441,48.17165 C 161.36805,94.097479 41.265614,92.828511 30.228815,93.933983 22.533697,94.704744 14.248511,100.10009 9.0156115,104.36381 c -15.5229708,12.64797 0.782239,14.98417 4.1730975,15.02602 16.964088,0.20938 45.21404,3.60454 82.62426,4.06586 1.831762,3.93619 4.239851,6.52761 7.071071,8.13173 9.00236,-0.68244 17.07468,-0.66735 24.74873,-0.35355 2.70549,3.93741 5.82106,3.97902 9.19239,1.59099 14.91616,-0.44743 30.19466,0.19216 45.43161,0.7071 z"
       style="fill:#000000;fill-opacity:1;fill-rule:evenodd;stroke:none"
       id="path1891" />
    <path
       d="m 485,20.875 3.5,-4.125 4.125,1.625 -1.75,4.25 -5.875,-1.75 z"
       style="fill:#5effc2;fill-opacity:1;fill-rule:evenodd;stroke:none"
       id="path2779" />
    <path
       d="m 500.5,22.125 2.625,-3.75 7.375,0.125 -2,3.5 -8,0.125 z"
       style="fill:#5effc2;fill-opacity:1;fill-rule:evenodd;stroke:none"
       id="path2781" />
    <path
       d="m 521.125,22.75 c 0.5636,-7.309406 9.38393,-6.634201 16.75,-5.5 -2.03846,3.083333 -10.86307,3.666667 -16.75,5.5 z"
       style="fill:#5effc2;fill-opacity:1;fill-rule:evenodd;stroke:none"
       id="path2783" />
    <path
       d="m 182.625,94.875 c 11.83659,0.12581 23.39475,0.18202 36.5,0.625 -6.60437,-13.2448 -30.82641,-46.878988 -39.625,-59 -2.1487,-2.960069 -4.5038,-2.838515 -7.75,-1.75 -3.12644,1.048357 -4.875,2.0625 -4.25,6 0.67656,4.262308 9.25,40.125 15.125,54.125 z"
       style="fill:url(#linearGradient5667);fill-opacity:1;fill-rule:evenodd;stroke:none"
       id="path2785" />
    <path
       d="M 6,112.875 C 8.5180787,107.2528 21.77788,98.585435 26.375,98.125 26.200113,103.24309 10.377497,112.9582 6,112.875 z"
       style="fill:#94b9d2;fill-opacity:1;fill-rule:evenodd;stroke:none"
       id="path2787" />
    <path
       d="m 9.75,114.75 c 11.201923,-6.61895 17.01317,-12.03996 20.75,-17 90.47191,-0.967556 190.94113,1.253268 251.5,-0.625 -3.53553,8.23342 -15.92755,23.14708 -40,23.5 -18.58621,0.27249 -30.41671,-0.46917 -36.75,-0.8125 2.7883,-4.44951 7.00601,-9.26768 2.9375,-10.75 -2.99217,-1.09016 -7.14199,4.3643 -15.75,11 -14.14862,-0.16194 -27.57866,-0.4676 -43.9375,-0.1875 4.94673,-4.94824 8.82333,-8.71789 5.75,-11.125 -2.48821,-1.94883 -11.15916,4.79403 -18.75,12.625 C 90.70752,120.36764 54.564651,116.08075 9.75,114.75 z"
       style="fill:url(#linearGradient5669);fill-opacity:1;fill-rule:evenodd;stroke:none"
       id="path2789" />
    <path
       d="m 141.95169,119.65499 c 0.76388,-2.42169 5.63396,-5.82473 7.42462,-6.09879 -0.17763,2.38575 -5.45967,5.63646 -7.42462,6.09879 z"
       style="fill:url(#linearGradient5671);fill-opacity:1;fill-rule:evenodd;stroke:none"
       id="path2801" />
    <path
       d="m 134.17351,129.24512 c 0.14516,-2.24491 3.0707,-6.0015 5.39169,-6.80589 -0.53119,2.03219 -3.16158,5.45968 -5.39169,6.80589 z"
       style="fill:url(#linearGradient5673);fill-opacity:1;fill-rule:evenodd;stroke:none"
       id="path2803" />
    <path
       d="m 198.7412,120.00854 c 0.41033,-2.46589 5.41299,-6.70862 7.20365,-6.98268 -0.17763,2.91608 -4.35481,5.99002 -7.20365,6.98268 z"
       style="fill:url(#linearGradient5675);fill-opacity:1;fill-rule:evenodd;stroke:none"
       id="path2829" />
    <path
       d="m 187.69265,133.44357 c 0.76388,-2.81944 6.8714,-9.58124 9.36917,-9.76691 -0.3986,2.34156 -7.40422,9.30458 -9.36917,9.76691 z"
       style="fill:url(#linearGradient5677);fill-opacity:1;fill-rule:evenodd;stroke:none"
       id="path2833" />
    <path
       d="m 132.84769,124.95829 c -0.42482,0.7955 -0.69419,1.59099 -0.88388,2.38649 -0.62869,0 -26.70396,-0.0455 -27.84234,-0.26517 -3.08009,-0.59426 -1.85616,-3.0052 -0.97227,-3.0052 1.77659,1e-5 22.9744,0.53033 29.69849,0.88388 z m 10.25305,-2.03293 c 17.43402,0.33119 34.28425,0.39703 49.14392,-0.44194 -2.62669,12.48506 -31.92945,6.23635 -52.06074,5.48008 1.07592,-1.36844 2.07591,-2.96467 2.91682,-5.03814 z m 88.56512,-0.17678 c -9.029,13.2154 -22.82336,8.39169 -35.6205,7.42463 2.33719,-3.09883 4.85987,-5.87305 8.13172,-7.33624 10.67765,-0.0295 19.87518,-0.0589 27.48878,-0.0884 z m 0.88388,4.68459 c 2.31377,-4.03998 4.54312,-4.41248 10.63885,-4.38553 4.84469,0.0211 7.10052,0.46243 9.95564,5.09263 l -20.59449,-0.7071 z m 37.74183,-12.55115 c -17.07047,7.69235 -16.98525,8.13309 -14.84924,10.25305 4.59351,4.55899 4.20396,1.88381 14.84924,-10.25305 z"
       style="fill:#94b9d2;fill-opacity:1;fill-rule:evenodd;stroke:none"
       id="path2837" />
    <path
       d="m 284.25,96.25 c 0.0617,1.018885 0.0749,1.924871 0.375,3.5 23.31867,-8.587475 27.74364,-9.542373 57.91789,-12.875 30.42317,-16.34084 131.00982,-51.522089 175.83211,-63.25 1.42371,-8.217138 1.83448,-9.355723 13,-8.75 C 499.59663,-8.9575383 373.7133,55.745541 284.25,96.25 z m 202.94657,-81.3352 -5.39169,7.689786 9.8995,2.563262 3.62392,-8.662058 -8.13173,-1.59099 z m 14.05375,1.679378 -5.3033,7.51301 13.70019,-0.353554 4.5962,-7.866562 -12.99309,0.707106 z"
       style="fill:#ffffff;fill-opacity:1;fill-rule:evenodd;stroke:none"
       id="path2871" />
    <path
       d="m 298.57584,108.60645 c 7.90524,-1.01795 14.42897,2.08443 6.55176,13.25891 -2.1887,3.10485 -3.36247,4.02296 -2.66268,5.39103 0.31914,0.6225 9.67364,-0.36372 12.97677,-6.23946 2.58764,-4.603 1.31456,-10.2523 -0.73996,-12.72298 -3.97959,-4.78569 -12.48808,-8.981758 -16.12589,0.3125 z"
       style="fill:#957110;fill-opacity:1;fill-rule:evenodd;stroke:none"
       id="path3766" />
    <path
       d="m 304.32108,100.03278 c 11.95944,-11.546965 24.34739,2.28696 15.02602,17.76606 0.22759,-9.53315 -5.48322,-16.67916 -15.02602,-17.76606 z"
       style="fill:#67492f;fill-opacity:1;fill-rule:evenodd;stroke:none"
       id="path3768" />
    <path
       d="m 269.625,120.625 c -18.49857,15.54103 -10.14627,26.53723 11.125,18.125 -9.15605,-4.38674 -9.66031,-12.30809 -11.125,-18.125 z"
       style="fill:#455b2e;fill-opacity:1;fill-rule:evenodd;stroke:none"
       id="path3770" />
    <path
       d="m 304.125,95.5 c -12.20065,9.9776 -14.22382,34.37136 1,34.875 -0.67819,8.98138 -22.47943,7.06843 -27,3.5 -6.28821,-4.96377 -9.5,-20 2.125,-27.875 7.26643,-4.92242 15.625,-8.75 23.875,-10.5 z"
       style="fill:url(#radialGradient5679);fill-opacity:1;fill-rule:evenodd;stroke:none"
       id="path3772" />
    <path
       d="m 316.96062,93.580429 c 2.53183,0.825615 4.70153,1.771936 5.48007,3.181981 64.93439,-8.584349 62.44197,-0.23153 62.2254,12.9047 47.94725,-37.831981 -37.60106,-18.051113 -67.70547,-16.086681 z"
       style="fill:url(#linearGradient5681);fill-opacity:1;fill-rule:evenodd;stroke:none"
       id="path3782" />
    <path
       d="m 206.375,134.375 c -2.68633,0.83544 -7.50878,4.16302 -12.125,7.25 -2.18166,0.34502 -4.61199,0.19269 -7.125,-0.125 0.41165,-0.96836 0.62738,-2.32858 0.375,-4.625 2.11784,-0.76074 3.92376,-1.98935 5.375,-3.75 5.05522,0.19458 10.07492,0.40337 13.5,1.25 z"
       style="fill:#a9cdcd;fill-opacity:1;fill-rule:evenodd;stroke:none"
       id="path3792" />
    <path
       d="m 238.82532,130.9687 c -19.33792,11.87746 -27.92798,13.57868 -41.89608,11.75565 7.69522,-4.08786 15.59666,-9.75677 22.62742,-8.75045 4.78299,3.2066 5.60286,0.32961 10.51821,-3.44714 3.9805,0.67916 6.07208,0.41385 8.75045,0.44194 z"
       style="fill:#a9cdcd;fill-opacity:1;fill-rule:evenodd;stroke:none"
       id="path3794" />
    <path
       d="m 268.75,146.25 c 12.03502,-5.4109 26.93179,-5.73451 35.375,-10.125 -0.64421,3.22847 -0.43887,6.09285 -3.25,10.25 -11.75745,0.30804 -21.41671,-0.0833 -32.125,-0.125 z"
       style="fill:#7595bf;fill-opacity:1;fill-rule:evenodd;stroke:none"
       id="path1911" />
    <path
       d="m 301,152.875 c 2.19787,-7.6055 3.9232,-4.93002 6.25,-18.375 12.26347,-7.42794 19.00942,-16.03845 17.25,-35.25 45.26069,-4.301203 54.68255,-4.84727 57.43515,3.98234 2.57057,8.2457 -12.95704,21.2461 -68.06015,44.76766 0,0 4.75,-14.75 4.375,-16.625 -0.375,-1.875 -2,-0.875 -2.875,1.75 -0.875,2.625 -6.25,16.875 -6.25,16.875 -2.42939,1.23727 -5.22795,2.10538 -8.125,2.875 z"
       style="fill:url(#radialGradient5683);fill-opacity:1;fill-rule:evenodd;stroke:none"
       id="path2800" />
    <path
       d="m 300.16683,123.80924 c -5.9165,-4.8924 -3.27028,-12.39141 0.81245,-13.25707 4.99683,-1.05948 8.83897,6.60163 -0.81245,13.25707 z"
       style="fill:url(#radialGradient5685);fill-opacity:1;fill-rule:evenodd;stroke:none"
       id="path2849" />
    <path
       d="m 93.125,138 c -1.33855,2.61586 -1.99481,4.55074 -4,6 32.64147,6.68412 102.46798,11.96178 107.625,11.75 5.8111,-0.24377 12.80608,-4.20077 16.625,-7.25 -25.449,-8.65097 -72.82665,-3.68384 -120.25,-10.5 z"
       style="fill:url(#linearGradient5687);fill-opacity:1;fill-rule:evenodd;stroke:none"
       id="path2816" />
    <path
       d="m 180.84256,158.63425 c -1.59422,8.14787 24.68083,9.02716 67.79126,9.80205 16.18561,0.28775 36.59387,-4.69248 37.2141,-6.26651 1.54794,-3.9284 3.10435,-7.62946 12.9047,-7.33624 -0.11623,-1.884 -0.0278,-3.56335 0.0884,-5.21491 -14.21361,-2.06677 -20.87353,0.29293 -32.88046,-1.06066 -2.51349,3.46918 -5.31284,6.80629 -6.98268,6.45235 -2.06909,-0.43857 -1.76955,-3.71053 -0.97227,-6.98268 -3.68602,-0.26517 -6.75128,0.52129 -6.98268,-0.88388 -0.63223,-3.83916 5.91315,-2.77246 5.48008,-15.55635 -3.71119,0.34448 -8.56038,0.43116 -12.81632,-0.0884 -8.32786,4.51791 -16.78135,8.91019 -25.80939,12.72792 9.51559,5.08799 -18.34105,16.8825 -37.03472,14.4073 z"
       style="fill:url(#radialGradient5689);fill-opacity:1;fill-rule:evenodd;stroke:none"
       id="path2848" />
    <path
       d="m 311.625,151.125 8.875,5.5 c 1.13735,-3.15815 24.27979,-7.7898 33.25871,-12.07147 10.5322,-5.02236 34.74919,-16.74923 62.35543,-29.21522 C 451.07389,99.551732 483.16695,86.643179 513.125,70.25 510.33008,68.666667 508.99547,66.994945 507.60355,65.411612 522.03273,54.582903 522.94216,54.514658 530.625,57.5 566.06401,31.54486 552.06713,20.365089 535,22.875 517.17598,25.496221 388.13448,66.364334 353.18727,85.920973 c 32.11086,-4.086908 46.39912,-6.198883 46.93587,7.935702 0.5693,14.804315 -45.64867,42.216695 -88.49814,57.268325 z"
       style="fill:url(#radialGradient5691);fill-opacity:1;fill-rule:evenodd;stroke:none"
       id="path1930" />
    <path
       d="m 519.90026,60.434799 c -0.93302,3.390161 -2.57418,6.213808 -4.68458,8.662058 -1.94059,-0.711058 -3.26429,-2.039009 -4.50781,-3.447146 2.47734,-2.471792 5.78636,-3.90398 9.19239,-5.214912 z"
       style="fill:#b2cca8;fill-opacity:1;fill-rule:evenodd;stroke:none"
       id="path2839" />
    <path
       d="m 526.08745,59.727692 c -0.72323,3.701609 -1.82638,7.498198 -4.41942,11.667262 -1.26396,-1.007607 -2.21131,-2.648439 -3.0052,-4.596194 2.33947,-4.388012 4.85064,-6.200588 7.42462,-7.071068 z"
       style="fill:#b2cca8;fill-opacity:1;fill-rule:evenodd;stroke:none"
       id="path2843" />
    <path
       d="m 529.18104,59.904469 c 0.76532,2.219408 1.05559,4.833252 -1.23743,6.098796 0.0759,-1.808521 0.45479,-3.819091 1.23743,-6.098796 z"
       style="fill:#afa6a9;fill-opacity:1;fill-rule:evenodd;stroke:none"
       id="path2845" />
    <path
       d="m 517.95572,72.013673 c -0.61344,0.351731 0.99003,3.015621 0.44194,6.89429 -0.68734,4.864009 -3.26461,8.006535 -2.82843,8.485282 0.49769,0.546262 4.28843,-3.790252 4.552,-8.838835 0.11017,-2.091751 -1.38427,-6.988681 -2.16551,-6.540737 z"
       style="fill:#afa6a9;fill-opacity:1;fill-rule:evenodd;stroke:none"
       id="path2847" />
    <path
       d="m 531.61172,71.0414 c 3.23127,1.420051 2.63595,4.368148 2.38648,6.45235 -1.18969,-0.99539 -1.2874,-3.978078 -2.38648,-6.45235 z"
       style="fill:#afa6a9;fill-opacity:1;fill-rule:evenodd;stroke:none"
       id="path2850" />
    <path
       d="m 514.06663,73.516274 c 3.62181,0.335928 0.5246,14.25748 -2.56326,13.346641 -3.26316,-0.962546 -1.33719,-13.708413 2.56326,-13.346641 z"
       style="fill:#033583;fill-opacity:1;fill-rule:evenodd;stroke:none"
       id="path2852" />
    <path
       d="m 528.53008,73.896393 c 3.60378,-0.369153 1.3083,9.133484 0,9.280777 -1.09341,0.123101 -1.97093,-9.078885 0,-9.280777 z"
       style="fill:#033583;fill-opacity:1;fill-rule:evenodd;stroke:none"
       id="path2854" />
    <path
       d="m 79.349894,142.93963 c 2.960019,-3.14733 5.348055,-4.47846 9.856787,-5.38083 -0.881994,3.70387 -5.744455,5.02209 -9.856787,5.38083 z"
       style="fill:#94b9d2;fill-opacity:1;fill-rule:evenodd;stroke:none"
       id="path1952" />
    <path
       d="m 290.37499,159 c 0.87225,5.54526 -0.31435,12.55794 -2,15.625 -0.99163,-4.98423 -0.60229,-11.82493 2,-15.625 z"
       style="fill:#afa6a9;fill-opacity:1;fill-rule:evenodd;stroke:none"
       id="path1958" />
    <path
       d="m 323.49999,157.875 c 2.87392,2.66149 3.33585,8.04582 -1.125,16.125 -1.14477,-1.65136 -0.38914,-2.93551 0,-8.75 0.16207,-2.42164 -0.625,-5.25 1.125,-7.375 z"
       style="fill:#afa6a9;fill-opacity:1;fill-rule:evenodd;stroke:none"
       id="path2846" />
    <path
       d="m 295.24999,157.75 c 4.36676,0.98678 3.484,19.71928 -3.875,20.75 1.02931,-7.70375 2.18507,-15.02812 3.875,-20.75 z"
       style="fill:#033583;fill-opacity:1;fill-rule:evenodd;stroke:none"
       id="path2851" />
    <path
       d="m 304.40946,155.62905 c 3.47728,2.76976 2.1917,19.13301 -1.41422,22.27387 -5.53897,-6.33775 -3.96103,-20.28053 1.41422,-22.27387 z"
       style="fill:#033583;fill-opacity:1;fill-rule:evenodd;stroke:none"
       id="path2853" />
    <path
       d="m 308.47533,154.56839 c 6.57233,-1.45831 4.01251,21.18043 -0.17678,21.92031 -2.28305,-0.77731 1.30624,-11.04122 0.17678,-21.92031 z"
       style="fill:#033583;fill-opacity:1;fill-rule:evenodd;stroke:none"
       id="path3740" />
    <path
       d="m 316.78383,161.99301 c 5.7632,-6.76448 -5.91727,-7.18575 0,0 z"
       style="fill:#afa6a9;fill-opacity:1;fill-rule:evenodd;stroke:none"
       id="path3742" />
    <path
       d="m 316.64557,165.1396 c 7.88452,6.14022 -6.62437,7.48672 0,0 z"
       style="fill:#afa6a9;fill-opacity:1;fill-rule:evenodd;stroke:none"
       id="path3744" />
    <path
       d="m 314.52451,172.86678 c 5.05609,4.72601 -4.8566,7.13317 0,0 z"
       style="fill:#afa6a9;fill-opacity:1;fill-rule:evenodd;stroke:none"
       id="path3746" />
    <path
       d="m 328.37499,158.375 c 5.6684,3.03974 5.70819,16.34059 -3.75,20.5 0.84947,-7.6344 3.53346,-13.47475 3.75,-20.5 z"
       style="fill:#033583;fill-opacity:1;fill-rule:evenodd;stroke:none"
       id="path3748" />
    <path
       d="m 415.24845,118.50595 2.56326,-1.14905 c 0.4804,9.59401 -0.008,17.97746 -0.44194,26.42811 -0.76179,0.32833 -1.88988,0.29037 -3.35876,-0.0884 -2.74362,-6.53459 -10.29956,-11.99324 -13.43503,-17.76605 l 2.2981,-1.85616 c 3.09005,4.1578 7.83638,7.18964 11.57887,10.16466 0.87739,-4.93826 0.8388,-10.33451 0.7955,-15.73312 z"
       style="fill:#957110;fill-opacity:1;fill-rule:evenodd;stroke:none"
       id="path3754" />
    <path
       d="m 376.18079,136.53716 c 3.83737,-1.64991 6.88707,-3.12305 8.83884,-4.77296 5.72319,0.0386 11.60988,0.043 15.9099,1.06066 4.04346,0.22628 5.79619,3.97829 8.13173,6.18718 -12.11327,-1.45282 -20.55606,-0.5703 -32.88047,-2.47488 z"
       style="fill:#94b9d2;fill-opacity:1;fill-rule:evenodd;stroke:none"
       id="path3756" />
    <path
       d="m 420.55175,135.65328 c -0.0163,2.44859 0.13371,5.27158 -0.35355,8.66206 5.59038,-1.21496 11.85129,-2.20286 12.55114,-7.95495 -4.06586,0.12317 -8.13173,-0.39918 -12.19759,-0.70711 z"
       style="fill:#94b9d2;fill-opacity:1;fill-rule:evenodd;stroke:none"
       id="path3758" />
    <path
       d="m 447.4218,138.48171 c 6.73573,1.04244 8.64119,-1.57011 11.31371,4.06587 -10.32014,-1.24458 -11.28599,1.9945 -11.31371,-4.06587 z"
       style="fill:#94b9d2;fill-opacity:1;fill-rule:evenodd;stroke:none"
       id="path3760" />
    <path
       d="m 492.14631,145.90634 c 3.7123,-1.10762 5.83363,-1.96073 8.83883,-3.88909 9.81389,2.08518 9.88716,0.93972 21.92031,3.18198 -4.17902,6.08446 -22.22562,2.61114 -30.75914,0.70711 z"
       style="fill:#94b9d2;fill-opacity:1;fill-rule:evenodd;stroke:none"
       id="path3762" />
    <path
       d="m 492.27406,111.08905 c -10.43288,13.51313 -5.73854,26.41641 5.94975,27.09683 -3.86017,6.32973 -26.89885,10.78074 -31.5962,7.21231 -6.37929,-4.84616 -10.38388,-12.39861 2.65533,-22.74848 6.8744,-5.45655 10.49848,-8.04289 22.99112,-11.56066 z"
       style="fill:url(#radialGradient5693);fill-opacity:1;fill-rule:evenodd;stroke:none"
       id="path3764" />
    <path
       d="m 490.32506,120.35164 c 7.90524,-1.01795 10.27472,1.28894 7.17048,9.01627 -1.41605,3.52495 -3.36247,4.02296 -2.66268,5.39103 0.31914,0.6225 8.12688,-0.82286 10.94384,-6.94657 1.79214,-3.89589 1.45651,-12.42696 -0.82835,-14.66752 -2.83723,-2.78222 -8.5106,-5.00427 -14.62329,7.20679 z"
       style="fill:#957110;fill-opacity:1;fill-rule:evenodd;stroke:none"
       id="path3769" />
    <path
       d="m 389.87499,130.125 c 2.63452,-1.12024 6.77562,-2.54969 8.75,-4 1.3171,2.3842 1.46807,3.68614 2.125,4.75 -3.29753,-0.41586 -7.36955,-0.63045 -10.875,-0.75 z m 15.29719,-6.84608 c 1.84192,2.68111 4.46323,5.36223 7.95495,8.04334 -0.2116,-3.99489 -0.25881,-7.90758 0,-11.66726 -2.36414,1.63923 -5.12497,2.68344 -7.95495,3.62392 z m 15.02601,-7.24784 c 10.12189,-4.20985 18.2117,-7.91169 26.51651,-11.66727 9.50709,3.06789 23.43652,4.72039 31.99658,8.66206 -13.33784,7.50446 -19.27657,14.23171 -20.85965,22.45064 -13.07486,-0.0677 -24.75532,-1.05187 -37.12311,-3.0052 0.0691,-4.87042 -0.12823,-10.62738 -0.53033,-16.44023 z m 83.79216,23.68807 c 1.41421,-0.87335 2.82843,-1.9059 4.24264,-3.71231 11.04525,4.46929 7.89603,1.32583 20.59448,5.56847 -8.42603,1.29219 -16.64318,-0.13117 -24.83712,-1.85616 z m 11.66726,-15.46796 -6.01041,10.25305 c 14.20716,3.58113 32.81632,4.52977 37.65343,-2.03294 l -31.64302,-8.22011 z m 36.76955,8.92722 c 41.56336,9.43041 43.75239,11.13316 27.93071,15.2028 -7.71551,1.98458 -31.97337,-0.18546 -49.67424,-5.3033 7.65485,-3.09633 15.02794,-6.33354 21.74353,-9.8995 z"
       style="fill:url(#linearGradient5695);fill-opacity:1;fill-rule:evenodd;stroke:none"
       id="path3750" />
    <path
       d="m 399.09249,148.825 c 1.75613,1.12584 0.56953,17.33091 -1.46967,17.56954 -2.05229,-1.09514 -1.13262,-16.77467 1.46967,-17.56954 z"
       style="fill:#afa6a9;fill-opacity:1;fill-rule:evenodd;stroke:none"
       id="path3795" />
    <path
       d="m 402.02294,145.20762 c 7.37197,0.98678 6.84276,26.96712 -2.99111,26.58363 3.68096,-7.70375 3.24573,-20.15464 2.99111,-26.58363 z"
       style="fill:#033583;fill-opacity:1;fill-rule:evenodd;stroke:none"
       id="path3799" />
    <path
       d="m 411.48194,150.2182 c 2.87392,2.66149 3.33585,11.40458 0.28921,16.47855 -1.14477,-1.65136 -0.91947,-2.58195 -0.53033,-8.39644 0.16207,-2.42164 -1.50888,-5.95711 0.24112,-8.08211 z"
       style="fill:#afa6a9;fill-opacity:1;fill-rule:evenodd;stroke:none"
       id="path3813" />
    <path
       d="m 415.31087,147.53108 c 6.57233,-2.69574 3.83573,22.41787 0,21.92031 -2.10628,-2.19152 1.65979,-3.26304 0,-21.92031 z"
       style="fill:#033583;fill-opacity:1;fill-rule:evenodd;stroke:none"
       id="path3815" />
    <path
       d="m 423.0654,157.31044 c 6.82386,-5.35027 5.57322,5.89573 0,0 z"
       style="fill:#afa6a9;fill-opacity:1;fill-rule:evenodd;stroke:none"
       id="path3817" />
    <path
       d="m 431.62183,145.90937 c 13.08725,6.82317 7.51983,26.02169 -3.39644,21.91422 6.43514,-3.99398 6.6114,-8.15816 6.31079,-11.76006 -0.3006,-3.60191 -2.13873,-7.17186 -2.91435,-10.15416 z"
       style="fill:#033583;fill-opacity:1;fill-rule:evenodd;stroke:none"
       id="path3819" />
    <path
       d="m 430.39704,150.57175 c 1.99004,2.48472 3.33585,7.86905 -0.0643,13.82691 -0.79122,-2.00492 -0.0356,-4.17295 0,-7.33579 0.0289,-2.42688 -1.68566,-4.36612 0.0643,-6.49112 z"
       style="fill:#afa6a9;fill-opacity:1;fill-rule:evenodd;stroke:none"
       id="path3821" />
    <path
       d="m 492.13122,131.90141 c -3.6184,-4.00852 -3.0935,-8.6791 0.98923,-9.54476 4.99683,-1.05948 3.71244,6.42485 -0.98923,9.54476 z"
       style="fill:url(#radialGradient5697);fill-opacity:1;fill-rule:evenodd;stroke:none"
       id="path3823" />
    <path
       d="m 260.03851,151.73996 c -0.2661,-12.35168 9.50279,-7.44184 0,0 z"
       style="fill:#455b2e;fill-opacity:1;fill-rule:evenodd;stroke:none"
       id="path3827" />
    <path
       d="m 254.42319,145.87236 c 5.12559,-11.55618 7.73502,2.63444 0,0 z"
       style="fill:#455b2e;fill-opacity:1;fill-rule:evenodd;stroke:none"
       id="path5599" />
    <path
       d="m 457.01581,150.41013 c 4.06309,-13.05618 9.11002,-1.17806 0,0 z"
       style="fill:#455b2e;fill-opacity:1;fill-rule:evenodd;stroke:none"
       id="path5601" />
  </g>
</svg>
